<svg xmlns="http://www.w3.org/2000/svg" width="1024" height="1024" viewBox="190 -18 240 240">
  <defs>
    <!-- Paper Texture Filter for Background -->
    <filter id="bg-paper" x="0%" y="0%" width="100%" height="100%">
      <feTurbulence type="fractalNoise" baseFrequency="0.4" numOctaves="3" result="noise" />
      <!-- Generates a subtle 4% opaque grain -->
      <feColorMatrix type="matrix" values="1 0 0 0 0  0 1 0 0 0  0 0 1 0 0  0 0 0 0.04 0" in="noise" result="coloredNoise" />
      <!-- Atop operator clips the grain to only appear within the rounded background path -->
      <feComposite operator="atop" in="coloredNoise" in2="SourceGraphic" />
    </filter>

    <filter id="icon-ink-bleed" x="-20%" y="-20%" width="140%" height="140%">
      <feTurbulence type="fractalNoise" baseFrequency="0.8" numOctaves="3" result="noise" />
      <feDisplacementMap in="SourceGraphic" in2="noise" scale="1.5" xChannelSelector="R" yChannelSelector="G" result="displaced" />
      <feGaussianBlur in="displaced" stdDeviation="0.3" result="blurred" />
      <feComponentTransfer in="blurred">
        <feFuncA type="discrete" tableValues="0 1" />
      </feComponentTransfer>
    </filter>

    <filter id="icon-stamp-texture" x="-20%" y="-20%" width="140%" height="140%">
      <feTurbulence type="fractalNoise" baseFrequency="0.5" numOctaves="4" result="noise" />
      <feColorMatrix type="matrix" values="1 0 0 0 0  0 1 0 0 0  0 0 1 0 0  0 0 0 9 -4" in="noise" result="coloredNoise" />
      <feComposite operator="in" in="SourceGraphic" in2="coloredNoise" result="textured" />
      <feTurbulence type="fractalNoise" baseFrequency="0.3" numOctaves="2" result="edgeNoise" />
      <feDisplacementMap in="textured" in2="edgeNoise" scale="3.5" xChannelSelector="R" yChannelSelector="G" result="final" />
    </filter>
    
    <!-- Native macOS inner border gradient (top light reflection, bottom dark shadow) -->
    <linearGradient id="mac-inner-stroke" x1="0%" y1="0%" x2="0%" y2="100%">
      <stop offset="0%" stop-color="#ffffff" stop-opacity="0.8" />
      <stop offset="100%" stop-color="#000000" stop-opacity="0.2" />
    </linearGradient>
  </defs>

  <!-- Solid App Icon Background with Native macOS Squircle (rx=54 is 22.5%) and Paper Texture added -->
  <rect x="190" y="-18" width="240" height="240" rx="54" fill="#F5F2EB" filter="url(#bg-paper)" />
  
  <!-- Subtle macOS Inner Border (simulates tactile separation without an overwhelming outline) -->
  <rect x="190.25" y="-17.75" width="239.5" height="239.5" rx="53.75" fill="none" stroke="url(#mac-inner-stroke)" stroke-width="0.5" />

  <!-- The Organic Bracket -->
  <path
    d="M 235 45 C 255 45, 265 65, 260 80 C 255 90, 255 98, 275 102 C 255 106, 255 114, 260 124 C 265 139, 255 159, 235 159 C 248 152, 252 142, 248 132 C 244 122, 248 112, 262 102 C 248 92, 244 82, 248 72 C 252 62, 248 52, 235 45 Z"
    fill="#1E1E1E"
    filter="url(#icon-ink-bleed)"
  />

  <!-- Red tactile marks (Two dots, one checkmark) -->
  <circle cx="305" cy="102" r="11" fill="#B43D2F" filter="url(#icon-stamp-texture)" />
  <circle cx="338" cy="102" r="11.5" fill="#B43D2F" filter="url(#icon-stamp-texture)" />
  <path
    d="M 364 100 L 370 108 L 382 92"
    fill="none"
    stroke="#B43D2F"
    stroke-width="5"
    stroke-linecap="round"
    stroke-linejoin="round"
    filter="url(#icon-stamp-texture)"
  />
</svg>
