<svg xmlns="http://www.w3.org/2000/svg" width="1024" height="1024" viewBox="0 0 1024 1024">
  <defs>
    <filter id="icon-ink-bleed" x="-20%" y="-20%" width="140%" height="140%">
      <feTurbulence type="fractalNoise" baseFrequency="0.8" numOctaves="3" result="noise" />
      <feDisplacementMap in="SourceGraphic" in2="noise" scale="1.5" xChannelSelector="R" yChannelSelector="G" result="displaced" />
      <feGaussianBlur in="displaced" stdDeviation="0.3" result="blurred" />
      <feComponentTransfer in="blurred">
        <feFuncA type="discrete" tableValues="0 1" />
      </feComponentTransfer>
    </filter>

    <filter id="icon-stamp-texture" x="-20%" y="-20%" width="140%" height="140%">
      <feTurbulence type="fractalNoise" baseFrequency="0.5" numOctaves="4" result="noise" />
      <feColorMatrix type="matrix" values="1 0 0 0 0  0 1 0 0 0  0 0 1 0 0  0 0 0 9 -4" in="noise" result="coloredNoise" />
      <feComposite operator="in" in="SourceGraphic" in2="coloredNoise" result="textured" />
      <feTurbulence type="fractalNoise" baseFrequency="0.3" numOctaves="2" result="edgeNoise" />
      <feDisplacementMap in="textured" in2="edgeNoise" scale="3.5" xChannelSelector="R" yChannelSelector="G" result="final" />
    </filter>

    <clipPath id="macos-mask">
      <rect x="0" y="0" width="1024" height="1024" rx="228" ry="228" />
    </clipPath>

    <clipPath id="panel-mask">
      <rect x="34" y="34" width="956" height="956" rx="196" ry="196" />
    </clipPath>

    <linearGradient id="paper-wash" x1="110" y1="88" x2="916" y2="928" gradientUnits="userSpaceOnUse">
      <stop offset="0" stop-color="#FAF7F1" />
      <stop offset="0.58" stop-color="#F4EEE5" />
      <stop offset="1" stop-color="#ECE5DB" />
    </linearGradient>

    <radialGradient id="paper-vignette" cx="0" cy="0" r="1" gradientUnits="userSpaceOnUse" gradientTransform="translate(338 388) rotate(46) scale(366 316)">
      <stop offset="0" stop-color="#3B3B3B" stop-opacity="0.08" />
      <stop offset="1" stop-color="#3B3B3B" stop-opacity="0" />
    </radialGradient>

    <filter id="panel-shadow" x="-10%" y="-10%" width="120%" height="120%">
      <feDropShadow dx="0" dy="16" stdDeviation="18" flood-color="#46342B" flood-opacity="0.24" />
    </filter>

    <filter id="mark-shadow" x="-20%" y="-20%" width="140%" height="140%">
      <feDropShadow dx="0" dy="8" stdDeviation="8" flood-color="#4A3A31" flood-opacity="0.18" />
    </filter>
  </defs>

  <g clip-path="url(#macos-mask)">
    <rect width="1024" height="1024" fill="#F5F2EB" />
    <g filter="url(#panel-shadow)">
      <rect x="34" y="34" width="956" height="956" rx="196" ry="196" fill="url(#paper-wash)" />
      <rect x="34" y="34" width="956" height="956" rx="196" ry="196" fill="url(#paper-vignette)" />
      <rect x="34" y="34" width="956" height="956" rx="196" ry="196" fill="none" stroke="#FFFFFF" stroke-opacity="0.45" stroke-width="4" />
    </g>

    <g clip-path="url(#panel-mask)" transform="translate(512 512) scale(3.38) translate(-310 -102)" filter="url(#mark-shadow)">
      <path
        d="M 235 45 C 255 45, 265 65, 260 80 C 255 90, 255 98, 275 102 C 255 106, 255 114, 260 124 C 265 139, 255 159, 235 159 C 248 152, 252 142, 248 132 C 244 122, 248 112, 262 102 C 248 92, 244 82, 248 72 C 252 62, 248 52, 235 45 Z"
        fill="#1E1E1E"
        filter="url(#icon-ink-bleed)"
      />

      <circle cx="305" cy="102" r="11" fill="#B43D2F" filter="url(#icon-stamp-texture)" />
      <circle cx="338" cy="102" r="11.5" fill="#B43D2F" filter="url(#icon-stamp-texture)" />
      <circle cx="372" cy="102" r="12" fill="#B43D2F" filter="url(#icon-stamp-texture)" />
    </g>
  </g>
</svg>
